<svg viewBox="0 0 215 214" fill="currentColor" xmlns="http://www.w3.org/2000/svg"><title>Breakbeat</title>
<path d="M159.393 32.965C168.889 12.565 174.025 1.99498 175.04 0.758975C176.144 -0.585025 175.814 -0.73603 185.101 5.36597C187.547 6.97297 188.793 8.49698 188.601 9.64698C188.168 12.243 156.702 44.831 155.647 43.776C155.143 43.272 156.737 38.67 159.393 32.965Z" fill="currentColor"/>
<path d="M190.362 56.858C190.395 55.784 192.87 51.005 195.862 46.238C203.067 34.761 203.463 34.793 205.812 47.032C206.446 50.332 207.39 54.968 207.911 57.333C209.47 64.418 208.173 64.885 197.248 61.172C191.772 59.31 190.316 58.398 190.362 56.858Z" fill="currentColor"/>
<path d="M204.465 78.782C204.188 79.47 203.961 78.907 203.961 77.532C203.961 76.157 204.188 75.595 204.465 76.282C204.743 76.97 204.743 78.095 204.465 78.782Z" fill="currentColor"/>
<path d="M98.5392 114.713C95.9682 112.142 95.8492 107.244 98.2912 104.545C99.3922 103.329 101.376 102.532 103.303 102.532C107.272 102.532 110.136 105.495 110.136 109.6C110.136 115.818 102.855 119.028 98.5392 114.713Z" fill="currentColor"/>
<path d="M42.6532 193.006L49.3522 184.769C53.0362 180.239 56.5842 176.532 57.2362 176.532C57.8872 176.532 59.1692 177.095 60.0852 177.782C61.5842 178.909 61.1592 179.944 55.7742 188.282C52.4892 193.369 49.3762 197.532 48.8572 197.532C48.3392 197.532 46.7312 196.514 45.2842 195.269L42.6532 193.006Z" fill="currentColor"/>
<path fill-rule="evenodd" clip-rule="evenodd" d="M90.3032 5.02796C61.8532 9.53196 38.6832 23.292 21.7822 45.721C-5.92279 82.487 -7.30679 130.737 18.2472 168.95C21.2192 173.395 25.9402 179.269 28.7372 182.004L33.8232 186.976L44.1892 176.645L54.5562 166.314L58.9292 166.977C61.3352 167.341 64.4872 167.864 65.9342 168.139C68.3162 168.591 69.1552 167.762 74.8342 159.335C78.2822 154.218 81.2032 149.903 81.3242 149.745C81.7712 149.162 86.8032 151.882 86.8032 152.705C86.8032 153.772 83.4482 165.687 81.6422 171.032C80.4102 174.68 80.0162 175.004 77.1692 174.719C74.1172 174.414 73.8772 174.714 66.4252 188.171C62.2332 195.741 58.8032 202.475 58.8032 203.136C58.8032 204.664 69.7922 208.947 80.8032 211.711C92.9422 214.759 113.675 214.675 126.243 211.528C136.534 208.951 151.744 202.849 152.448 201.015C153.196 199.066 142.695 177.632 140.679 176.993C139.113 176.495 132.803 167.554 132.803 165.831C132.803 165.463 133.669 164.232 134.728 163.096C136.638 161.047 136.611 160.958 130.878 150.733C127.703 145.068 124.641 139.97 124.075 139.404C123.37 138.699 121.357 139.264 117.675 141.204C112.815 143.763 111.349 144.032 102.283 144.032C92.3922 144.032 92.1902 143.984 86.6682 140.319C74.8142 132.449 69.3832 122.889 69.4652 110.032C69.5332 99.243 72.2912 92.161 79.1422 85.179C86.6042 77.575 92.1922 75.184 103.274 74.852L112.265 74.583L113.882 69.808C114.771 67.181 115.794 63.443 116.155 61.5C116.744 58.333 116.508 57.789 113.868 56.229L110.923 54.49L112.283 49.761C113.031 47.16 114.155 42.332 114.782 39.032L114.887 38.48C115.881 33.2381 116.242 31.3343 117.071 31.1017C117.545 30.9691 118.17 31.38 119.152 32.0254L119.336 32.146C120.845 33.134 122.265 33.458 122.776 32.931C123.255 32.436 125.525 26.91 127.82 20.65C130.937 12.147 131.681 9.075 130.764 8.508C130.088 8.09 127.008 7.273 123.919 6.693C104.531 3.049 103.216 2.98396 90.3032 5.02796ZM14.5372 110.532C14.5092 99.286 16.3922 88.509 19.6872 81.062C22.3892 74.953 23.0822 75.333 20.9992 81.782C18.4642 89.629 18.5992 129.472 21.1892 137.856C23.7132 146.029 22.5402 146.017 19.4482 137.839C15.5552 127.545 14.5662 122.042 14.5372 110.532ZM26.6872 98.251C27.7382 93.181 29.1072 87.732 29.7292 86.143C31.5042 81.605 31.7802 83.49 30.2212 89.501C28.3282 96.8 28.3662 119.073 30.2892 129.124C31.1072 133.397 31.5882 137.08 31.3592 137.309C30.4562 138.213 26.6302 123.565 25.7292 115.751C24.9332 108.846 25.0922 105.939 26.6872 98.251ZM36.3392 104.782C36.6842 102.72 37.6312 98.621 38.4442 95.675C39.2572 92.728 40.0992 90.495 40.3172 90.712C40.5342 90.93 40.2502 94.241 39.6862 98.07C38.6542 105.075 39.2332 121.069 40.7652 127.862C41.2182 129.873 41.2502 131.308 40.8352 131.052C39.9412 130.499 37.2292 120.791 36.2912 114.782C35.7172 111.108 35.2932 110.532 33.1562 110.532C31.7632 110.532 30.9552 110.096 31.3032 109.532C31.6432 108.982 32.7742 108.532 33.8172 108.532C35.2292 108.532 35.8722 107.576 36.3392 104.782ZM48.4952 118.464C46.5412 110.814 46.8972 104.491 49.6892 97.282C51.3142 93.084 52.0072 93.997 51.2052 99.282C50.8092 101.894 50.5472 104.707 50.6222 105.532C50.6982 106.357 50.7792 109.732 50.8022 113.032C50.8252 116.332 51.2432 120.743 51.7302 122.834C52.3572 125.525 52.2912 126.528 51.5042 126.266C50.8932 126.062 49.5392 122.551 48.4952 118.464Z" fill="currentColor"/>
<path fill-rule="evenodd" clip-rule="evenodd" d="M134.807 27.246C131.88 33.728 128.82 40.058 128.009 41.312C126.538 43.585 126.529 43.586 125.112 41.562C122.329 37.59 121.494 39.188 122.057 47.405C122.354 51.735 123.039 56.122 123.579 57.155C124.318 58.568 123.735 61.134 121.221 67.532C119.383 72.207 117.863 76.297 117.842 76.622C117.82 76.946 120.485 79.294 123.763 81.839L129.722 86.467L133.383 82C135.397 79.542 137.679 77.532 138.455 77.532C141.534 77.532 140.908 80.711 136.774 86.069L132.522 91.582L134.333 95.598C135.669 98.562 136.558 99.441 137.724 98.951C144.675 96.026 144.737 96.021 146.952 98.237L149.098 100.382L145.328 101.957C143.255 102.823 141.029 103.532 140.381 103.532C137.985 103.532 136.803 106.071 136.803 111.221C136.803 117.275 134.126 125.109 130.377 130.024C128.961 131.88 127.803 133.705 127.803 134.079C127.803 134.453 131.853 139.832 136.803 146.032C141.753 152.232 145.803 157.624 145.803 158.014C145.803 158.404 144.863 160.043 143.714 161.657L141.626 164.59L145.863 168.811C148.626 171.562 152.002 176.949 155.562 184.282C158.566 190.47 161.353 195.532 161.756 195.532C163.914 195.532 177.531 184.465 185.943 175.876C196.543 165.051 202.283 157.161 206.791 147.218C215.355 128.331 217.095 104.499 211.204 86.797C208.903 79.884 207.774 78.978 203.935 80.964C202.222 81.85 193.761 85.242 185.134 88.502C170.722 93.948 169.347 94.291 168.202 92.731C167.055 91.168 166.349 91.332 159.363 94.782C151.233 98.797 148.803 99.343 148.803 97.154C148.803 95.382 149.751 94.629 160.386 87.952C168.555 82.823 169.33 82.532 170.515 84.153C171.708 85.785 172.559 85.541 182.551 80.699C188.465 77.834 193.431 74.917 193.586 74.218C193.947 72.599 180.376 44.004 178.777 43.016C178.022 42.549 172.193 47.587 162.943 56.699L148.303 71.121L144.526 67.198C140.327 62.836 140.327 62.209 144.534 54.358C147.036 49.689 147.036 49.679 145.45 42.358C144.577 38.329 143.353 30.982 142.731 26.032C142.11 21.082 141.27 16.678 140.866 16.246C140.461 15.813 137.735 20.763 134.807 27.246ZM139.62 87.532C138.621 87.532 140.105 84.641 144.876 77.294C147.817 72.765 148.966 72.476 147.795 76.56C146.819 79.962 141.179 87.532 139.62 87.532ZM167.997 168.759C172.976 163.613 184.02 148.946 186.44 144.267C187.271 142.661 188.183 141.579 188.467 141.863C189.503 142.899 180.667 158.261 175.351 164.666C169.855 171.286 165.144 175.207 164.027 174.089C163.695 173.757 165.482 171.359 167.997 168.759ZM163.492 159.81C166.202 156.554 169.456 152.211 170.725 150.158C171.993 148.106 173.237 146.633 173.489 146.885C174.638 148.033 163.83 162.912 160.587 164.648C159.465 165.248 160.756 163.097 163.492 159.81Z" fill="currentColor"/>
</svg>
